<svg xmlns="http://www.w3.org/2000/svg" xmlns:xlink="http://www.w3.org/1999/xlink" width="500" zoomAndPan="magnify" viewBox="0 0 375 374.999991" height="500" preserveAspectRatio="xMidYMid meet" version="1.2"><defs><clipPath id="a98573d5f1"><path d="M 149.523438 126.300781 L 209.082031 126.300781 L 209.082031 174.265625 L 149.523438 174.265625 Z M 149.523438 126.300781 "/></clipPath><clipPath id="cbd2b712fa"><path d="M 170.71875 127.917969 L 225.269531 127.917969 L 225.269531 164.890625 L 170.71875 164.890625 Z M 170.71875 127.917969 "/></clipPath></defs><g id="c2fc47728c"><g clip-rule="nonzero" clip-path="url(#a98573d5f1)"><path style=" stroke:none;fill-rule:nonzero;fill:#231f20;fill-opacity:1;" d="M 188.910156 169.628906 L 192.855469 167.328125 L 187.9375 171.667969 L 152.535156 140.355469 L 167.542969 128.25 L 171.410156 128.25 L 168.929688 128.503906 C 168.5625 128.542969 168.210938 128.6875 167.921875 128.917969 L 157.808594 137 C 157.378906 137.34375 157.113281 137.855469 157.078125 138.40625 C 157.046875 138.957031 157.25 139.5 157.636719 139.890625 L 186.554688 169.3125 C 186.929688 169.695312 187.429688 169.894531 187.9375 169.894531 C 188.269531 169.894531 188.605469 169.808594 188.910156 169.628906 Z M 159.015625 138.523438 L 169.128906 130.441406 L 209.066406 126.300781 L 166.859375 126.300781 L 149.523438 140.285156 L 187.9375 174.265625 L 209.066406 155.617188 L 187.9375 167.945312 L 159.015625 138.523438 "/></g><g clip-rule="nonzero" clip-path="url(#cbd2b712fa)"><path style=" stroke:none;fill-rule:nonzero;fill:#231f20;fill-opacity:1;" d="M 218.953125 138.742188 C 218.925781 138.175781 218.652344 137.644531 218.207031 137.296875 L 209.015625 130.125 L 210.058594 129.992188 L 222.015625 139.375 L 210.996094 147.179688 L 218.34375 140.253906 C 218.757812 139.863281 218.980469 139.3125 218.953125 138.742188 Z M 225.269531 139.457031 L 210.617188 127.957031 L 170.777344 132.996094 L 207.273438 131.230469 L 217.015625 138.835938 L 189.410156 164.847656 L 225.269531 139.457031 "/></g><g style="fill:#000000;fill-opacity:1;"><g transform="translate(29.252185, 218.42899)"><path style="stroke:none" d="M 13.9375 -20.25 L 15.265625 -19.609375 C 16.566406 -18.972656 17.851562 -18.363281 19.125 -17.78125 C 20.40625 -17.195312 21.566406 -16.535156 22.609375 -15.796875 C 23.648438 -15.054688 24.476562 -14.160156 25.09375 -13.109375 C 25.707031 -12.066406 26.015625 -10.789062 26.015625 -9.28125 C 26.015625 -7.539062 25.582031 -5.921875 24.71875 -4.421875 C 23.851562 -2.921875 22.570312 -1.703125 20.875 -0.765625 C 19.1875 0.171875 17.066406 0.640625 14.515625 0.640625 C 12.960938 0.640625 11.613281 0.488281 10.46875 0.1875 C 9.320312 -0.113281 8.234375 -0.445312 7.203125 -0.8125 C 6.179688 -1.1875 5.070312 -1.460938 3.875 -1.640625 L 2.390625 -14.953125 L 2.8125 -15 C 3.269531 -11.957031 4.023438 -9.515625 5.078125 -7.671875 C 6.140625 -5.835938 7.34375 -4.453125 8.6875 -3.515625 C 10.03125 -2.585938 11.390625 -1.972656 12.765625 -1.671875 C 14.148438 -1.367188 15.390625 -1.21875 16.484375 -1.21875 C 18.460938 -1.21875 20.015625 -1.488281 21.140625 -2.03125 C 22.273438 -2.582031 23.082031 -3.316406 23.5625 -4.234375 C 24.039062 -5.160156 24.28125 -6.132812 24.28125 -7.15625 C 24.28125 -8.851562 23.785156 -10.25 22.796875 -11.34375 C 21.804688 -12.4375 20.554688 -13.367188 19.046875 -14.140625 C 17.546875 -14.921875 16.003906 -15.664062 14.421875 -16.375 L 12.828125 -17.125 C 11.410156 -17.789062 10.015625 -18.503906 8.640625 -19.265625 C 7.265625 -20.023438 6.113281 -21.003906 5.1875 -22.203125 C 4.269531 -23.410156 3.8125 -24.984375 3.8125 -26.921875 C 3.8125 -28.898438 4.285156 -30.566406 5.234375 -31.921875 C 6.191406 -33.285156 7.4375 -34.320312 8.96875 -35.03125 C 10.507812 -35.738281 12.164062 -36.09375 13.9375 -36.09375 C 15.707031 -36.09375 17.347656 -35.78125 18.859375 -35.15625 C 20.378906 -34.539062 21.617188 -33.773438 22.578125 -32.859375 L 24.015625 -36.046875 L 24.375 -36.046875 L 24.375 -22.796875 L 24.0625 -22.796875 C 23.175781 -26.328125 21.753906 -29.097656 19.796875 -31.109375 C 17.835938 -33.117188 15.25 -34.125 12.03125 -34.125 C 10.125 -34.125 8.523438 -33.671875 7.234375 -32.765625 C 5.941406 -31.867188 5.296875 -30.519531 5.296875 -28.71875 C 5.296875 -27.3125 5.710938 -26.09375 6.546875 -25.0625 C 7.378906 -24.039062 8.457031 -23.160156 9.78125 -22.421875 C 11.101562 -21.679688 12.488281 -20.957031 13.9375 -20.25 Z M 13.9375 -20.25 "/></g></g><g style="fill:#000000;fill-opacity:1;"><g transform="translate(57.814988, 218.42899)"><path style="stroke:none" d="M 19.875 -3.8125 L 20.09375 -3.4375 C 18.570312 -2.28125 17.164062 -1.328125 15.875 -0.578125 C 14.582031 0.160156 13.546875 0.53125 12.765625 0.53125 C 10.648438 0.53125 8.71875 0.0351562 6.96875 -0.953125 C 5.21875 -1.941406 3.8125 -3.425781 2.75 -5.40625 C 1.695312 -7.382812 1.171875 -9.875 1.171875 -12.875 C 1.171875 -15.207031 1.46875 -17.226562 2.0625 -18.9375 C 2.664062 -20.65625 3.4375 -22.113281 4.375 -23.3125 C 5.3125 -24.519531 6.289062 -25.484375 7.3125 -26.203125 C 8.332031 -26.929688 9.273438 -27.460938 10.140625 -27.796875 C 11.015625 -28.128906 11.679688 -28.296875 12.140625 -28.296875 C 15.003906 -28.296875 16.984375 -27.484375 18.078125 -25.859375 C 19.171875 -24.234375 19.71875 -22.113281 19.71875 -19.5 C 19.71875 -19.21875 19.453125 -18.835938 18.921875 -18.359375 C 18.390625 -17.890625 17.832031 -17.46875 17.25 -17.09375 C 16.664062 -16.71875 16.25 -16.53125 16 -16.53125 L 3.703125 -16.53125 L 3.703125 -15.578125 C 3.703125 -11.203125 4.703125 -7.8125 6.703125 -5.40625 C 8.703125 -3 11.328125 -1.796875 14.578125 -1.796875 C 15.742188 -1.796875 16.722656 -2.007812 17.515625 -2.4375 C 18.304688 -2.863281 19.09375 -3.320312 19.875 -3.8125 Z M 11.234375 -26.015625 C 10.285156 -26.015625 9.269531 -25.800781 8.1875 -25.375 C 7.113281 -24.957031 6.160156 -24.140625 5.328125 -22.921875 C 4.492188 -21.703125 3.972656 -19.890625 3.765625 -17.484375 L 16.859375 -17.484375 C 17.035156 -19.535156 16.863281 -21.179688 16.34375 -22.421875 C 15.832031 -23.660156 15.125 -24.566406 14.21875 -25.140625 C 13.320312 -25.722656 12.328125 -26.015625 11.234375 -26.015625 Z M 11.234375 -26.015625 "/></g></g><g style="fill:#000000;fill-opacity:1;"><g transform="translate(79.22385, 218.42899)"><path style="stroke:none" d="M 22.15625 -25.859375 L 22.3125 -25.65625 C 22 -25.300781 21.644531 -24.875 21.25 -24.375 C 20.863281 -23.882812 20.457031 -23.441406 20.03125 -23.046875 C 19.601562 -22.660156 19.179688 -22.46875 18.765625 -22.46875 C 18.160156 -22.46875 17.53125 -22.710938 16.875 -23.203125 C 16.226562 -23.703125 15.578125 -24.195312 14.921875 -24.6875 C 14.265625 -25.1875 13.617188 -25.4375 12.984375 -25.4375 C 12.378906 -25.4375 11.707031 -24.957031 10.96875 -24 C 10.226562 -23.050781 9.554688 -22.03125 8.953125 -20.9375 L 8.953125 -1.59375 L 13.734375 -0.3125 L 13.734375 0 L 1.21875 0 L 1.21875 -0.3125 L 5.984375 -1.59375 L 5.984375 -25.65625 L -0.21875 -22.203125 L -0.375 -22.46875 C 0.40625 -23.101562 1.203125 -23.867188 2.015625 -24.765625 C 2.828125 -25.671875 3.613281 -26.46875 4.375 -27.15625 C 5.132812 -27.851562 5.78125 -28.203125 6.3125 -28.203125 C 6.550781 -28.203125 6.800781 -28.113281 7.0625 -27.9375 C 7.332031 -27.757812 7.625 -27.269531 7.9375 -26.46875 C 8.257812 -25.675781 8.582031 -24.378906 8.90625 -22.578125 C 9.507812 -23.492188 10.160156 -24.382812 10.859375 -25.25 C 11.566406 -26.113281 12.203125 -26.828125 12.765625 -27.390625 C 13.335938 -27.960938 13.710938 -28.25 13.890625 -28.25 C 14.273438 -28.25 14.734375 -28.085938 15.265625 -27.765625 C 15.796875 -27.453125 16.359375 -27.070312 16.953125 -26.625 C 17.554688 -26.1875 18.140625 -25.804688 18.703125 -25.484375 C 19.273438 -25.171875 19.789062 -25.015625 20.25 -25.015625 C 20.632812 -25.015625 20.96875 -25.101562 21.25 -25.28125 C 21.53125 -25.457031 21.832031 -25.648438 22.15625 -25.859375 Z M 22.15625 -25.859375 "/></g></g><g style="fill:#000000;fill-opacity:1;"><g transform="translate(100.526728, 218.42899)"><path style="stroke:none" d="M 27.671875 -27.671875 L 27.671875 -26.015625 C 26.921875 -26.015625 25.960938 -26.066406 24.796875 -26.171875 C 23.640625 -26.285156 22.457031 -26.429688 21.25 -26.609375 C 20.050781 -26.785156 18.972656 -26.960938 18.015625 -27.140625 L 17.96875 -27.03125 C 19.34375 -26.144531 20.335938 -25.070312 20.953125 -23.8125 C 21.578125 -22.5625 21.890625 -21.210938 21.890625 -19.765625 C 21.890625 -18.210938 21.5625 -16.789062 20.90625 -15.5 C 20.25 -14.207031 19.425781 -13.101562 18.4375 -12.1875 C 17.445312 -11.269531 16.46875 -10.5625 15.5 -10.0625 C 14.53125 -9.570312 13.726562 -9.328125 13.09375 -9.328125 C 10.90625 -9.328125 9.050781 -9.769531 7.53125 -10.65625 C 6.78125 -9.875 6.085938 -9.117188 5.453125 -8.390625 C 4.816406 -7.671875 4.5 -6.941406 4.5 -6.203125 C 4.5 -5.347656 4.816406 -4.613281 5.453125 -4 C 6.085938 -3.382812 7.132812 -3.003906 8.59375 -2.859375 L 17.4375 -2.0625 C 18.144531 -2 18.9375 -1.910156 19.8125 -1.796875 C 20.695312 -1.691406 21.546875 -1.488281 22.359375 -1.1875 C 23.171875 -0.882812 23.851562 -0.398438 24.40625 0.265625 C 24.957031 0.929688 25.234375 1.867188 25.234375 3.078125 C 25.234375 3.285156 25.175781 3.769531 25.0625 4.53125 C 24.957031 5.289062 24.691406 6.179688 24.265625 7.203125 C 23.847656 8.234375 23.171875 9.234375 22.234375 10.203125 C 21.296875 11.171875 20.015625 11.984375 18.390625 12.640625 C 16.765625 13.296875 14.695312 13.625 12.1875 13.625 C 10.175781 13.625 8.273438 13.347656 6.484375 12.796875 C 4.703125 12.253906 3.265625 11.488281 2.171875 10.5 C 1.078125 9.507812 0.53125 8.320312 0.53125 6.9375 C 0.53125 6.800781 0.617188 6.625 0.796875 6.40625 C 0.972656 6.195312 1.316406 5.863281 1.828125 5.40625 C 2.335938 4.945312 3.097656 4.273438 4.109375 3.390625 C 5.117188 2.503906 6.46875 1.335938 8.15625 -0.109375 C 6.957031 -0.210938 5.835938 -0.445312 4.796875 -0.8125 C 3.753906 -1.1875 2.894531 -1.726562 2.21875 -2.4375 C 1.550781 -3.144531 1.21875 -4.03125 1.21875 -5.09375 C 1.21875 -5.226562 1.488281 -5.5625 2.03125 -6.09375 C 2.582031 -6.625 3.289062 -7.3125 4.15625 -8.15625 C 5.019531 -9.007812 5.914062 -9.984375 6.84375 -11.078125 C 5.851562 -11.785156 5.070312 -12.710938 4.5 -13.859375 C 3.9375 -15.003906 3.65625 -16.390625 3.65625 -18.015625 C 3.65625 -19.578125 3.984375 -20.992188 4.640625 -22.265625 C 5.296875 -23.535156 6.117188 -24.628906 7.109375 -25.546875 C 8.097656 -26.460938 9.082031 -27.164062 10.0625 -27.65625 C 11.050781 -28.15625 11.867188 -28.40625 12.515625 -28.40625 C 12.828125 -28.40625 13.503906 -28.34375 14.546875 -28.21875 C 15.585938 -28.09375 16.78125 -27.96875 18.125 -27.84375 C 19.46875 -27.726562 20.757812 -27.671875 22 -27.671875 Z M 19.5625 -17.90625 C 19.5625 -19.539062 19.210938 -20.972656 18.515625 -22.203125 C 17.828125 -23.441406 16.882812 -24.414062 15.6875 -25.125 C 14.488281 -25.832031 13.128906 -26.1875 11.609375 -26.1875 C 10.691406 -26.1875 9.789062 -25.984375 8.90625 -25.578125 C 8.019531 -25.171875 7.300781 -24.488281 6.75 -23.53125 C 6.207031 -22.570312 5.9375 -21.300781 5.9375 -19.71875 C 5.9375 -18.125 6.28125 -16.707031 6.96875 -15.46875 C 7.65625 -14.238281 8.5625 -13.269531 9.6875 -12.5625 C 10.820312 -11.851562 12.082031 -11.5 13.46875 -11.5 C 14.5625 -11.5 15.566406 -11.703125 16.484375 -12.109375 C 17.398438 -12.515625 18.140625 -13.1875 18.703125 -14.125 C 19.273438 -15.0625 19.5625 -16.320312 19.5625 -17.90625 Z M 24.109375 5.25 C 24.109375 4.332031 23.804688 3.570312 23.203125 2.96875 C 22.609375 2.363281 21.832031 1.894531 20.875 1.5625 C 19.925781 1.226562 18.882812 0.976562 17.75 0.8125 C 16.625 0.65625 15.53125 0.523438 14.46875 0.421875 L 9.21875 0 C 7.59375 1.164062 6.328125 2.25 5.421875 3.25 C 4.523438 4.257812 4.078125 5.171875 4.078125 5.984375 C 4.078125 7.367188 4.988281 8.585938 6.8125 9.640625 C 8.632812 10.703125 11.148438 11.234375 14.359375 11.234375 C 16.410156 11.234375 18.160156 10.953125 19.609375 10.390625 C 21.054688 9.828125 22.164062 9.082031 22.9375 8.15625 C 23.71875 7.238281 24.109375 6.269531 24.109375 5.25 Z M 24.109375 5.25 "/></g></g><g style="fill:#000000;fill-opacity:1;"><g transform="translate(126.068978, 218.42899)"><path style="stroke:none" d="M 19.875 -3.8125 L 20.09375 -3.4375 C 18.570312 -2.28125 17.164062 -1.328125 15.875 -0.578125 C 14.582031 0.160156 13.546875 0.53125 12.765625 0.53125 C 10.648438 0.53125 8.71875 0.0351562 6.96875 -0.953125 C 5.21875 -1.941406 3.8125 -3.425781 2.75 -5.40625 C 1.695312 -7.382812 1.171875 -9.875 1.171875 -12.875 C 1.171875 -15.207031 1.46875 -17.226562 2.0625 -18.9375 C 2.664062 -20.65625 3.4375 -22.113281 4.375 -23.3125 C 5.3125 -24.519531 6.289062 -25.484375 7.3125 -26.203125 C 8.332031 -26.929688 9.273438 -27.460938 10.140625 -27.796875 C 11.015625 -28.128906 11.679688 -28.296875 12.140625 -28.296875 C 15.003906 -28.296875 16.984375 -27.484375 18.078125 -25.859375 C 19.171875 -24.234375 19.71875 -22.113281 19.71875 -19.5 C 19.71875 -19.21875 19.453125 -18.835938 18.921875 -18.359375 C 18.390625 -17.890625 17.832031 -17.46875 17.25 -17.09375 C 16.664062 -16.71875 16.25 -16.53125 16 -16.53125 L 3.703125 -16.53125 L 3.703125 -15.578125 C 3.703125 -11.203125 4.703125 -7.8125 6.703125 -5.40625 C 8.703125 -3 11.328125 -1.796875 14.578125 -1.796875 C 15.742188 -1.796875 16.722656 -2.007812 17.515625 -2.4375 C 18.304688 -2.863281 19.09375 -3.320312 19.875 -3.8125 Z M 11.234375 -26.015625 C 10.285156 -26.015625 9.269531 -25.800781 8.1875 -25.375 C 7.113281 -24.957031 6.160156 -24.140625 5.328125 -22.921875 C 4.492188 -21.703125 3.972656 -19.890625 3.765625 -17.484375 L 16.859375 -17.484375 C 17.035156 -19.535156 16.863281 -21.179688 16.34375 -22.421875 C 15.832031 -23.660156 15.125 -24.566406 14.21875 -25.140625 C 13.320312 -25.722656 12.328125 -26.015625 11.234375 -26.015625 Z M 11.234375 -26.015625 "/></g></g><g style="fill:#000000;fill-opacity:1;"><g transform="translate(147.477839, 218.42899)"><path style="stroke:none" d=""/></g></g><g style="fill:#000000;fill-opacity:1;"><g transform="translate(158.076281, 218.42899)"><path style="stroke:none" d="M 20.984375 -18.96875 L 20.984375 -18.8125 C 22.148438 -18.738281 23.367188 -18.425781 24.640625 -17.875 C 25.910156 -17.332031 26.988281 -16.460938 27.875 -15.265625 C 28.757812 -14.066406 29.203125 -12.457031 29.203125 -10.4375 C 29.203125 -9.207031 28.953125 -7.972656 28.453125 -6.734375 C 27.960938 -5.492188 27.148438 -4.367188 26.015625 -3.359375 C 24.890625 -2.359375 23.40625 -1.546875 21.5625 -0.921875 C 19.726562 -0.304688 17.453125 0 14.734375 0 L 1.640625 0 L 1.640625 -0.3125 L 6.046875 -2.0625 L 6.046875 -33.703125 L 1.640625 -35.453125 L 1.640625 -35.78125 L 17.21875 -35.78125 C 20.15625 -35.78125 22.554688 -35.113281 24.421875 -33.78125 C 26.296875 -32.457031 27.234375 -30.5625 27.234375 -28.09375 C 27.234375 -26.707031 26.90625 -25.457031 26.25 -24.34375 C 25.601562 -23.238281 24.863281 -22.28125 24.03125 -21.46875 C 23.207031 -20.65625 22.484375 -20.023438 21.859375 -19.578125 C 21.242188 -19.140625 20.953125 -18.9375 20.984375 -18.96875 Z M 15.3125 -34.71875 L 9.171875 -34.71875 L 9.171875 -18.921875 L 15.796875 -18.96875 C 18.617188 -19.007812 20.664062 -19.679688 21.9375 -20.984375 C 23.207031 -22.296875 23.84375 -24.238281 23.84375 -26.8125 C 23.84375 -29.070312 23.15625 -30.953125 21.78125 -32.453125 C 20.40625 -33.960938 18.25 -34.71875 15.3125 -34.71875 Z M 14.734375 -1.109375 C 18.410156 -1.179688 21.148438 -1.84375 22.953125 -3.09375 C 24.753906 -4.351562 25.65625 -6.554688 25.65625 -9.703125 C 25.65625 -12.492188 24.847656 -14.578125 23.234375 -15.953125 C 21.628906 -17.328125 18.757812 -18.015625 14.625 -18.015625 L 9.171875 -18.015625 L 9.171875 -1.171875 C 10.515625 -1.171875 11.722656 -1.160156 12.796875 -1.140625 C 13.878906 -1.117188 14.523438 -1.109375 14.734375 -1.109375 Z M 14.734375 -1.109375 "/></g></g><g style="fill:#000000;fill-opacity:1;"><g transform="translate(189.023735, 218.42899)"><path style="stroke:none" d="M 6.734375 -33.4375 C 6.054688 -33.4375 5.476562 -33.675781 5 -34.15625 C 4.53125 -34.632812 4.296875 -35.207031 4.296875 -35.875 C 4.296875 -36.507812 4.53125 -37.066406 5 -37.546875 C 5.476562 -38.023438 6.054688 -38.265625 6.734375 -38.265625 C 7.398438 -38.265625 7.960938 -38.023438 8.421875 -37.546875 C 8.878906 -37.066406 9.109375 -36.507812 9.109375 -35.875 C 9.109375 -35.207031 8.878906 -34.632812 8.421875 -34.15625 C 7.960938 -33.675781 7.398438 -33.4375 6.734375 -33.4375 Z M 5.453125 -1.59375 L 5.453125 -25.96875 L 0.6875 -27.34375 L 0.6875 -27.671875 L 8.421875 -27.671875 L 8.421875 -1.59375 L 13.203125 -0.3125 L 13.203125 0 L 0.6875 0 L 0.6875 -0.3125 Z M 5.453125 -1.59375 "/></g></g><g style="fill:#000000;fill-opacity:1;"><g transform="translate(202.112811, 218.42899)"><path style="stroke:none" d="M 6.09375 -33.4375 C 5.425781 -33.4375 4.851562 -33.675781 4.375 -34.15625 C 3.894531 -34.632812 3.65625 -35.207031 3.65625 -35.875 C 3.65625 -36.507812 3.894531 -37.066406 4.375 -37.546875 C 4.851562 -38.023438 5.425781 -38.265625 6.09375 -38.265625 C 6.769531 -38.265625 7.335938 -38.023438 7.796875 -37.546875 C 8.253906 -37.066406 8.484375 -36.507812 8.484375 -35.875 C 8.484375 -35.207031 8.253906 -34.632812 7.796875 -34.15625 C 7.335938 -33.675781 6.769531 -33.4375 6.09375 -33.4375 Z M 7.890625 -1.0625 C 7.890625 0.78125 7.472656 2.441406 6.640625 3.921875 C 5.816406 5.398438 4.796875 6.722656 3.578125 7.890625 C 2.359375 9.054688 1.160156 10.085938 -0.015625 10.984375 C -1.203125 11.890625 -2.148438 12.679688 -2.859375 13.359375 L -3.078125 12.9375 C -2.296875 12.257812 -1.445312 11.4375 -0.53125 10.46875 C 0.382812 9.5 1.257812 8.40625 2.09375 7.1875 C 2.925781 5.96875 3.601562 4.660156 4.125 3.265625 C 4.65625 1.867188 4.921875 0.425781 4.921875 -1.0625 L 4.921875 -25.96875 L 0.15625 -27.34375 L 0.15625 -27.671875 L 7.890625 -27.671875 Z M 7.890625 -1.0625 "/></g></g><g style="fill:#000000;fill-opacity:1;"><g transform="translate(213.771102, 218.42899)"><path style="stroke:none" d="M 11.765625 0.53125 C 9.929688 0.53125 8.207031 0.0703125 6.59375 -0.84375 C 4.988281 -1.757812 3.679688 -3.179688 2.671875 -5.109375 C 1.671875 -7.035156 1.171875 -9.503906 1.171875 -12.515625 C 1.171875 -15.472656 1.566406 -17.957031 2.359375 -19.96875 C 3.148438 -21.988281 4.109375 -23.585938 5.234375 -24.765625 C 6.367188 -25.953125 7.484375 -26.8125 8.578125 -27.34375 C 9.679688 -27.875 10.550781 -28.140625 11.1875 -28.140625 C 13.019531 -28.140625 14.738281 -27.679688 16.34375 -26.765625 C 17.957031 -25.847656 19.265625 -24.425781 20.265625 -22.5 C 21.273438 -20.570312 21.78125 -18.109375 21.78125 -15.109375 C 21.78125 -12.140625 21.378906 -9.644531 20.578125 -7.625 C 19.785156 -5.613281 18.820312 -4.015625 17.6875 -2.828125 C 16.5625 -1.648438 15.453125 -0.796875 14.359375 -0.265625 C 13.265625 0.265625 12.398438 0.53125 11.765625 0.53125 Z M 13.09375 -1.90625 C 13.6875 -1.90625 14.363281 -2.046875 15.125 -2.328125 C 15.882812 -2.609375 16.609375 -3.109375 17.296875 -3.828125 C 17.992188 -4.554688 18.570312 -5.582031 19.03125 -6.90625 C 19.488281 -8.238281 19.71875 -9.929688 19.71875 -11.984375 C 19.71875 -14.660156 19.289062 -17.03125 18.4375 -19.09375 C 17.59375 -21.164062 16.4375 -22.785156 14.96875 -23.953125 C 13.5 -25.117188 11.796875 -25.703125 9.859375 -25.703125 C 9.253906 -25.703125 8.570312 -25.5625 7.8125 -25.28125 C 7.050781 -25 6.328125 -24.492188 5.640625 -23.765625 C 4.953125 -23.046875 4.378906 -22.03125 3.921875 -20.71875 C 3.460938 -19.414062 3.234375 -17.722656 3.234375 -15.640625 C 3.234375 -12.953125 3.65625 -10.570312 4.5 -8.5 C 5.351562 -6.4375 6.519531 -4.820312 8 -3.65625 C 9.488281 -2.488281 11.1875 -1.90625 13.09375 -1.90625 Z M 13.09375 -1.90625 "/></g></g><g style="fill:#000000;fill-opacity:1;"><g transform="translate(236.716733, 218.42899)"><path style="stroke:none" d="M 22.046875 -2.125 L 28.25 -5.5625 L 28.40625 -5.296875 C 27.664062 -4.703125 26.878906 -3.941406 26.046875 -3.015625 C 25.210938 -2.097656 24.425781 -1.296875 23.6875 -0.609375 C 22.945312 0.078125 22.296875 0.421875 21.734375 0.421875 C 21.515625 0.421875 21.265625 0.332031 20.984375 0.15625 C 20.703125 -0.0195312 20.410156 -0.476562 20.109375 -1.21875 C 19.804688 -1.957031 19.5 -3.175781 19.1875 -4.875 C 17.695312 -3.070312 16.304688 -1.71875 15.015625 -0.8125 C 13.734375 0.0820312 12.84375 0.53125 12.34375 0.53125 C 11.039062 0.53125 9.78125 0.285156 8.5625 -0.203125 C 7.34375 -0.703125 6.351562 -1.585938 5.59375 -2.859375 C 4.832031 -4.128906 4.453125 -5.953125 4.453125 -8.328125 L 4.453125 -25.96875 L -0.3125 -27.34375 L -0.3125 -27.671875 L 7.421875 -27.671875 L 7.421875 -8.328125 C 7.421875 -6.054688 8.003906 -4.410156 9.171875 -3.390625 C 10.335938 -2.367188 11.660156 -1.859375 13.140625 -1.859375 C 14.273438 -1.859375 15.351562 -2.320312 16.375 -3.25 C 17.394531 -4.1875 18.296875 -5.171875 19.078125 -6.203125 L 19.078125 -25.96875 L 14.3125 -27.34375 L 14.3125 -27.671875 L 22.046875 -27.671875 Z M 22.046875 -2.125 "/></g></g><g style="fill:#000000;fill-opacity:1;"><g transform="translate(264.060718, 218.42899)"><path style="stroke:none" d="M 14.890625 -3.875 L 15.109375 -3.609375 C 14.359375 -2.859375 13.550781 -2.175781 12.6875 -1.5625 C 11.820312 -0.945312 11.023438 -0.441406 10.296875 -0.046875 C 9.578125 0.335938 9.0625 0.53125 8.75 0.53125 C 7.4375 0.53125 6.382812 0.0703125 5.59375 -0.84375 C 4.800781 -1.757812 4.40625 -3.117188 4.40625 -4.921875 L 4.40625 -26.65625 L -0.046875 -27.34375 L -0.046875 -27.671875 L 4.453125 -27.671875 L 7.265625 -33.390625 L 7.46875 -33.390625 L 7.359375 -27.671875 L 14.6875 -27.671875 L 14.6875 -25.921875 C 14.289062 -25.921875 13.382812 -26.007812 11.96875 -26.1875 C 10.5625 -26.363281 9.023438 -26.519531 7.359375 -26.65625 L 7.359375 -4.921875 C 7.359375 -2.703125 8.421875 -1.59375 10.546875 -1.59375 C 11.148438 -1.59375 11.75 -1.722656 12.34375 -1.984375 C 12.945312 -2.253906 13.796875 -2.882812 14.890625 -3.875 Z M 14.890625 -3.875 "/></g></g><g style="fill:#000000;fill-opacity:1;"><g transform="translate(279.322466, 218.42899)"><path style="stroke:none" d="M 6.734375 -33.4375 C 6.054688 -33.4375 5.476562 -33.675781 5 -34.15625 C 4.53125 -34.632812 4.296875 -35.207031 4.296875 -35.875 C 4.296875 -36.507812 4.53125 -37.066406 5 -37.546875 C 5.476562 -38.023438 6.054688 -38.265625 6.734375 -38.265625 C 7.398438 -38.265625 7.960938 -38.023438 8.421875 -37.546875 C 8.878906 -37.066406 9.109375 -36.507812 9.109375 -35.875 C 9.109375 -35.207031 8.878906 -34.632812 8.421875 -34.15625 C 7.960938 -33.675781 7.398438 -33.4375 6.734375 -33.4375 Z M 5.453125 -1.59375 L 5.453125 -25.96875 L 0.6875 -27.34375 L 0.6875 -27.671875 L 8.421875 -27.671875 L 8.421875 -1.59375 L 13.203125 -0.3125 L 13.203125 0 L 0.6875 0 L 0.6875 -0.3125 Z M 5.453125 -1.59375 "/></g></g><g style="fill:#000000;fill-opacity:1;"><g transform="translate(292.411554, 218.42899)"><path style="stroke:none" d="M 19.875 -3.8125 L 20.09375 -3.4375 C 18.570312 -2.28125 17.164062 -1.328125 15.875 -0.578125 C 14.582031 0.160156 13.546875 0.53125 12.765625 0.53125 C 10.648438 0.53125 8.71875 0.0351562 6.96875 -0.953125 C 5.21875 -1.941406 3.8125 -3.425781 2.75 -5.40625 C 1.695312 -7.382812 1.171875 -9.875 1.171875 -12.875 C 1.171875 -15.207031 1.46875 -17.226562 2.0625 -18.9375 C 2.664062 -20.65625 3.4375 -22.113281 4.375 -23.3125 C 5.3125 -24.519531 6.289062 -25.484375 7.3125 -26.203125 C 8.332031 -26.929688 9.273438 -27.460938 10.140625 -27.796875 C 11.015625 -28.128906 11.679688 -28.296875 12.140625 -28.296875 C 15.003906 -28.296875 16.984375 -27.484375 18.078125 -25.859375 C 19.171875 -24.234375 19.71875 -22.113281 19.71875 -19.5 C 19.71875 -19.21875 19.453125 -18.835938 18.921875 -18.359375 C 18.390625 -17.890625 17.832031 -17.46875 17.25 -17.09375 C 16.664062 -16.71875 16.25 -16.53125 16 -16.53125 L 3.703125 -16.53125 L 3.703125 -15.578125 C 3.703125 -11.203125 4.703125 -7.8125 6.703125 -5.40625 C 8.703125 -3 11.328125 -1.796875 14.578125 -1.796875 C 15.742188 -1.796875 16.722656 -2.007812 17.515625 -2.4375 C 18.304688 -2.863281 19.09375 -3.320312 19.875 -3.8125 Z M 11.234375 -26.015625 C 10.285156 -26.015625 9.269531 -25.800781 8.1875 -25.375 C 7.113281 -24.957031 6.160156 -24.140625 5.328125 -22.921875 C 4.492188 -21.703125 3.972656 -19.890625 3.765625 -17.484375 L 16.859375 -17.484375 C 17.035156 -19.535156 16.863281 -21.179688 16.34375 -22.421875 C 15.832031 -23.660156 15.125 -24.566406 14.21875 -25.140625 C 13.320312 -25.722656 12.328125 -26.015625 11.234375 -26.015625 Z M 11.234375 -26.015625 "/></g></g><g style="fill:#000000;fill-opacity:1;"><g transform="translate(313.820403, 218.42899)"><path style="stroke:none" d="M 22.15625 -25.859375 L 22.3125 -25.65625 C 22 -25.300781 21.644531 -24.875 21.25 -24.375 C 20.863281 -23.882812 20.457031 -23.441406 20.03125 -23.046875 C 19.601562 -22.660156 19.179688 -22.46875 18.765625 -22.46875 C 18.160156 -22.46875 17.53125 -22.710938 16.875 -23.203125 C 16.226562 -23.703125 15.578125 -24.195312 14.921875 -24.6875 C 14.265625 -25.1875 13.617188 -25.4375 12.984375 -25.4375 C 12.378906 -25.4375 11.707031 -24.957031 10.96875 -24 C 10.226562 -23.050781 9.554688 -22.03125 8.953125 -20.9375 L 8.953125 -1.59375 L 13.734375 -0.3125 L 13.734375 0 L 1.21875 0 L 1.21875 -0.3125 L 5.984375 -1.59375 L 5.984375 -25.65625 L -0.21875 -22.203125 L -0.375 -22.46875 C 0.40625 -23.101562 1.203125 -23.867188 2.015625 -24.765625 C 2.828125 -25.671875 3.613281 -26.46875 4.375 -27.15625 C 5.132812 -27.851562 5.78125 -28.203125 6.3125 -28.203125 C 6.550781 -28.203125 6.800781 -28.113281 7.0625 -27.9375 C 7.332031 -27.757812 7.625 -27.269531 7.9375 -26.46875 C 8.257812 -25.675781 8.582031 -24.378906 8.90625 -22.578125 C 9.507812 -23.492188 10.160156 -24.382812 10.859375 -25.25 C 11.566406 -26.113281 12.203125 -26.828125 12.765625 -27.390625 C 13.335938 -27.960938 13.710938 -28.25 13.890625 -28.25 C 14.273438 -28.25 14.734375 -28.085938 15.265625 -27.765625 C 15.796875 -27.453125 16.359375 -27.070312 16.953125 -26.625 C 17.554688 -26.1875 18.140625 -25.804688 18.703125 -25.484375 C 19.273438 -25.171875 19.789062 -25.015625 20.25 -25.015625 C 20.632812 -25.015625 20.96875 -25.101562 21.25 -25.28125 C 21.53125 -25.457031 21.832031 -25.648438 22.15625 -25.859375 Z M 22.15625 -25.859375 "/></g></g><g style="fill:#000000;fill-opacity:1;"><g transform="translate(335.134981, 218.42899)"><path style="stroke:none" d=""/></g></g><g style="fill:#000000;fill-opacity:1;"><g transform="translate(154.695279, 252.029031)"><path style="stroke:none" d="M 8.484375 0 L 1.28125 0 L 1.28125 -11.203125 L 8.484375 -11.203125 L 8.484375 -10 L 2.5625 -10 L 2.5625 -6.234375 L 8.15625 -6.234375 L 8.15625 -5.046875 L 2.5625 -5.046875 L 2.5625 -1.203125 L 8.484375 -1.203125 Z M 8.484375 0 "/></g></g><g style="fill:#000000;fill-opacity:1;"><g transform="translate(164.053032, 252.029031)"><path style="stroke:none" d="M 1.59375 0 L 0.15625 0 L 2.875 -4.078125 L 0.234375 -8 L 1.6875 -8 L 3.6875 -4.953125 L 4 -4.953125 L 6 -8 L 7.4375 -8 L 4.796875 -4.078125 L 7.515625 0 L 6.078125 0 L 4 -3.203125 L 3.6875 -3.203125 Z M 1.59375 0 "/></g></g><g style="fill:#000000;fill-opacity:1;"><g transform="translate(171.731193, 252.029031)"><path style="stroke:none" d="M 1.125 3.203125 L 1.125 -8 L 2.15625 -8 L 2.3125 -6.875 L 2.40625 -6.875 C 2.726562 -7.289062 3.097656 -7.609375 3.515625 -7.828125 C 3.929688 -8.046875 4.410156 -8.15625 4.953125 -8.15625 C 5.648438 -8.15625 6.28125 -7.976562 6.84375 -7.625 C 7.40625 -7.28125 7.84375 -6.789062 8.15625 -6.15625 C 8.476562 -5.53125 8.640625 -4.8125 8.640625 -4 C 8.640625 -3.1875 8.476562 -2.460938 8.15625 -1.828125 C 7.84375 -1.203125 7.40625 -0.710938 6.84375 -0.359375 C 6.28125 -0.015625 5.648438 0.15625 4.953125 0.15625 C 4.410156 0.15625 3.929688 0.046875 3.515625 -0.171875 C 3.097656 -0.390625 2.726562 -0.707031 2.40625 -1.125 L 2.3125 -1.125 L 2.3125 3.203125 Z M 4.875 -0.953125 C 5.332031 -0.953125 5.753906 -1.082031 6.140625 -1.34375 C 6.535156 -1.601562 6.847656 -1.960938 7.078125 -2.421875 C 7.316406 -2.878906 7.4375 -3.40625 7.4375 -4 C 7.4375 -4.59375 7.316406 -5.117188 7.078125 -5.578125 C 6.847656 -6.035156 6.535156 -6.394531 6.140625 -6.65625 C 5.753906 -6.914062 5.332031 -7.046875 4.875 -7.046875 C 4.414062 -7.046875 3.992188 -6.914062 3.609375 -6.65625 C 3.222656 -6.394531 2.910156 -6.035156 2.671875 -5.578125 C 2.429688 -5.117188 2.3125 -4.59375 2.3125 -4 C 2.3125 -3.40625 2.429688 -2.878906 2.671875 -2.421875 C 2.910156 -1.960938 3.222656 -1.601562 3.609375 -1.34375 C 3.992188 -1.082031 4.414062 -0.953125 4.875 -0.953125 Z M 4.875 -0.953125 "/></g></g><g style="fill:#000000;fill-opacity:1;"><g transform="translate(181.008963, 252.029031)"><path style="stroke:none" d="M 4.484375 0.15625 C 3.765625 0.15625 3.109375 -0.015625 2.515625 -0.359375 C 1.929688 -0.710938 1.472656 -1.203125 1.140625 -1.828125 C 0.804688 -2.460938 0.640625 -3.1875 0.640625 -4 C 0.640625 -4.8125 0.804688 -5.53125 1.140625 -6.15625 C 1.472656 -6.789062 1.929688 -7.28125 2.515625 -7.625 C 3.109375 -7.976562 3.765625 -8.15625 4.484375 -8.15625 C 5.160156 -8.15625 5.78125 -7.988281 6.34375 -7.65625 C 6.914062 -7.332031 7.359375 -6.878906 7.671875 -6.296875 C 7.992188 -5.710938 8.15625 -5.050781 8.15625 -4.3125 C 8.15625 -3.894531 8.128906 -3.601562 8.078125 -3.4375 L 1.84375 -3.4375 C 1.914062 -2.6875 2.203125 -2.082031 2.703125 -1.625 C 3.203125 -1.175781 3.796875 -0.953125 4.484375 -0.953125 C 4.960938 -0.953125 5.390625 -1.0625 5.765625 -1.28125 C 6.148438 -1.507812 6.441406 -1.828125 6.640625 -2.234375 L 7.921875 -2.234375 C 7.640625 -1.472656 7.203125 -0.882812 6.609375 -0.46875 C 6.023438 -0.0507812 5.316406 0.15625 4.484375 0.15625 Z M 6.953125 -4.5625 C 6.910156 -5.28125 6.65625 -5.875 6.1875 -6.34375 C 5.726562 -6.8125 5.160156 -7.046875 4.484375 -7.046875 C 3.765625 -7.046875 3.164062 -6.8125 2.6875 -6.34375 C 2.207031 -5.875 1.925781 -5.28125 1.84375 -4.5625 Z M 6.953125 -4.5625 "/></g></g><g style="fill:#000000;fill-opacity:1;"><g transform="translate(189.806849, 252.029031)"><path style="stroke:none" d="M 1.125 0 L 1.125 -8 L 2.15625 -8 L 2.3125 -7.203125 L 2.40625 -7.203125 C 2.582031 -7.472656 2.773438 -7.671875 2.984375 -7.796875 C 3.203125 -7.929688 3.515625 -8 3.921875 -8 L 5.28125 -8 L 5.28125 -6.875 L 4.078125 -6.875 C 3.523438 -6.875 3.09375 -6.722656 2.78125 -6.421875 C 2.46875 -6.117188 2.3125 -5.6875 2.3125 -5.125 L 2.3125 0 Z M 1.125 0 "/></g></g><g style="fill:#000000;fill-opacity:1;"><g transform="translate(195.245539, 252.029031)"><path style="stroke:none" d="M 3.125 0 C 2.6875 0 2.335938 -0.125 2.078125 -0.375 C 1.816406 -0.625 1.6875 -0.953125 1.6875 -1.359375 L 1.6875 -6.875 L 0.40625 -6.875 L 0.40625 -8 L 1.6875 -8 L 1.6875 -10.234375 L 2.875 -10.234375 L 2.875 -8 L 4.71875 -8 L 4.71875 -6.875 L 2.875 -6.875 L 2.875 -1.59375 C 2.875 -1.28125 3.035156 -1.125 3.359375 -1.125 L 4.71875 -1.125 L 4.71875 0 Z M 3.125 0 "/></g></g><g style="fill:#000000;fill-opacity:1;"><g transform="translate(200.684228, 252.029031)"><path style="stroke:none" d="M 2.3125 0 L 1.125 0 L 1.125 -8 L 2.3125 -8 Z M 2.40625 -9.6875 L 1.046875 -9.6875 L 1.046875 -11.046875 L 2.40625 -11.046875 Z M 2.40625 -9.6875 "/></g></g><g style="fill:#000000;fill-opacity:1;"><g transform="translate(204.123407, 252.029031)"><path style="stroke:none" d="M 3.6875 0.15625 C 3.039062 0.15625 2.472656 0.0390625 1.984375 -0.1875 C 1.503906 -0.414062 1.132812 -0.71875 0.875 -1.09375 C 0.613281 -1.46875 0.484375 -1.875 0.484375 -2.3125 L 1.6875 -2.3125 C 1.6875 -1.945312 1.863281 -1.628906 2.21875 -1.359375 C 2.570312 -1.085938 3.0625 -0.953125 3.6875 -0.953125 C 4.289062 -0.953125 4.757812 -1.066406 5.09375 -1.296875 C 5.425781 -1.523438 5.59375 -1.8125 5.59375 -2.15625 C 5.59375 -2.476562 5.484375 -2.738281 5.265625 -2.9375 C 5.046875 -3.132812 4.703125 -3.273438 4.234375 -3.359375 L 2.875 -3.59375 C 1.382812 -3.851562 0.640625 -4.601562 0.640625 -5.84375 C 0.640625 -6.507812 0.890625 -7.0625 1.390625 -7.5 C 1.898438 -7.9375 2.632812 -8.15625 3.59375 -8.15625 C 4.21875 -8.15625 4.765625 -8.039062 5.234375 -7.8125 C 5.710938 -7.582031 6.078125 -7.273438 6.328125 -6.890625 C 6.585938 -6.503906 6.71875 -6.101562 6.71875 -5.6875 L 5.515625 -5.6875 C 5.515625 -6.050781 5.335938 -6.367188 4.984375 -6.640625 C 4.640625 -6.910156 4.175781 -7.046875 3.59375 -7.046875 C 3.03125 -7.046875 2.597656 -6.929688 2.296875 -6.703125 C 1.992188 -6.472656 1.84375 -6.1875 1.84375 -5.84375 C 1.84375 -5.539062 1.941406 -5.296875 2.140625 -5.109375 C 2.335938 -4.929688 2.664062 -4.800781 3.125 -4.71875 L 4.484375 -4.484375 C 5.285156 -4.335938 5.867188 -4.070312 6.234375 -3.6875 C 6.609375 -3.3125 6.796875 -2.800781 6.796875 -2.15625 C 6.796875 -1.488281 6.523438 -0.9375 5.984375 -0.5 C 5.453125 -0.0625 4.6875 0.15625 3.6875 0.15625 Z M 3.6875 0.15625 "/></g></g><g style="fill:#000000;fill-opacity:1;"><g transform="translate(211.481637, 252.029031)"><path style="stroke:none" d="M 4.484375 0.15625 C 3.765625 0.15625 3.109375 -0.015625 2.515625 -0.359375 C 1.929688 -0.710938 1.472656 -1.203125 1.140625 -1.828125 C 0.804688 -2.460938 0.640625 -3.1875 0.640625 -4 C 0.640625 -4.8125 0.804688 -5.53125 1.140625 -6.15625 C 1.472656 -6.789062 1.929688 -7.28125 2.515625 -7.625 C 3.109375 -7.976562 3.765625 -8.15625 4.484375 -8.15625 C 5.160156 -8.15625 5.78125 -7.988281 6.34375 -7.65625 C 6.914062 -7.332031 7.359375 -6.878906 7.671875 -6.296875 C 7.992188 -5.710938 8.15625 -5.050781 8.15625 -4.3125 C 8.15625 -3.894531 8.128906 -3.601562 8.078125 -3.4375 L 1.84375 -3.4375 C 1.914062 -2.6875 2.203125 -2.082031 2.703125 -1.625 C 3.203125 -1.175781 3.796875 -0.953125 4.484375 -0.953125 C 4.960938 -0.953125 5.390625 -1.0625 5.765625 -1.28125 C 6.148438 -1.507812 6.441406 -1.828125 6.640625 -2.234375 L 7.921875 -2.234375 C 7.640625 -1.472656 7.203125 -0.882812 6.609375 -0.46875 C 6.023438 -0.0507812 5.316406 0.15625 4.484375 0.15625 Z M 6.953125 -4.5625 C 6.910156 -5.28125 6.65625 -5.875 6.1875 -6.34375 C 5.726562 -6.8125 5.160156 -7.046875 4.484375 -7.046875 C 3.765625 -7.046875 3.164062 -6.8125 2.6875 -6.34375 C 2.207031 -5.875 1.925781 -5.28125 1.84375 -4.5625 Z M 6.953125 -4.5625 "/></g></g></g></svg>